<svg width="20" height="20" viewBox="0 0 20 20" fill="none" xmlns="http://www.w3.org/2000/svg">
<path fill-rule="evenodd" clip-rule="evenodd" d="M7.88169 1C7.88169 0.734784 7.98704 0.48043 8.17458 0.292893C8.36212 0.105357 8.61647 0 8.88169 0H10.8817C11.1469 0 11.4013 0.105357 11.5888 0.292893C11.7763 0.48043 11.8817 0.734784 11.8817 1V2.32L15.2107 2.874C15.6775 2.95209 16.1015 3.1932 16.4073 3.55446C16.713 3.91572 16.8808 4.37371 16.8807 4.847V8.279L18.9407 8.965C19.1047 9.01973 19.2557 9.10792 19.3839 9.22397C19.5121 9.34003 19.6149 9.48143 19.6857 9.63924C19.7564 9.79705 19.7937 9.96783 19.7951 10.1408C19.7965 10.3137 19.7619 10.4851 19.6937 10.644L17.1727 16.527L18.3287 17.106C18.4503 17.1622 18.5593 17.2422 18.6494 17.3413C18.7395 17.4404 18.8087 17.5566 18.853 17.683C18.8973 17.8094 18.9158 17.9433 18.9073 18.077C18.8989 18.2107 18.8636 18.3413 18.8038 18.461C18.7439 18.5808 18.6605 18.6874 18.5587 18.7743C18.4568 18.8613 18.3385 18.9269 18.2109 18.9673C18.0832 19.0077 17.9487 19.022 17.8153 19.0094C17.682 18.9968 17.5526 18.9576 17.4347 18.894L14.7757 17.565C14.4981 17.4263 14.192 17.3541 13.8817 17.3541C13.5714 17.3541 13.2653 17.4263 12.9877 17.565L11.6707 18.224C11.1152 18.5018 10.5027 18.6464 9.88169 18.6464C9.26065 18.6464 8.64815 18.5018 8.09269 18.224L6.77569 17.565C6.49796 17.4261 6.1917 17.3538 5.88119 17.3538C5.57067 17.3538 5.26442 17.4261 4.98669 17.565L2.32869 18.895C2.09132 19.0136 1.81658 19.033 1.5649 18.9489C1.31323 18.8649 1.10524 18.6844 0.986686 18.447C0.868134 18.2096 0.848732 17.9349 0.932748 17.6832C1.01676 17.4315 1.19732 17.2236 1.43469 17.105L3.26669 16.189L0.164686 10.761C0.0729347 10.6004 0.0179558 10.4215 0.00371281 10.2371C-0.0105301 10.0527 0.0163178 9.86748 0.0823211 9.69472C0.148324 9.52196 0.251838 9.36601 0.3854 9.23809C0.518961 9.11017 0.679242 9.01349 0.854686 8.955L2.88169 8.279V4.847C2.88159 4.37371 3.04934 3.91572 3.35512 3.55446C3.6609 3.1932 4.08488 2.95209 4.55169 2.874L7.88169 2.32V1ZM5.13169 15.425C5.99329 15.2606 6.88505 15.3839 7.66969 15.776L8.98569 16.435C9.26355 16.574 9.56998 16.6464 9.88069 16.6464C10.1914 16.6464 10.4978 16.574 10.7757 16.435L12.0917 15.776C12.5982 15.5228 13.1526 15.38 13.7184 15.3571C14.2842 15.3341 14.8484 15.4316 15.3737 15.643L17.5337 10.605L9.88169 8.055L2.35469 10.563L5.13169 15.425ZM14.8817 7.613V4.847L9.88169 4.014L4.88169 4.847V7.613L9.24869 6.157C9.65925 6.02014 10.1031 6.02014 10.5137 6.157L14.8817 7.613Z" fill="#F1F5FE"/>
</svg>
