<svg width="28" height="26" viewBox="0 0 28 26" fill="none" xmlns="http://www.w3.org/2000/svg">
<g id="Vector" filter="url(#filter0_d_2_493)">
<path d="M7.75588 6.84375V0.75C7.75588 0.551088 7.67686 0.360322 7.53621 0.21967C7.39556 0.0790178 7.20479 0 7.00588 0C6.80697 0 6.6162 0.0790178 6.47555 0.21967C6.3349 0.360322 6.25588 0.551088 6.25588 0.75V6.84375C5.61057 7.00898 5.0386 7.38428 4.63015 7.91048C4.2217 8.43669 4 9.08387 4 9.75C4 10.4161 4.2217 11.0633 4.63015 11.5895C5.0386 12.1157 5.61057 12.491 6.25588 12.6562V17.25C6.25588 17.4489 6.3349 17.6397 6.47555 17.7803C6.6162 17.921 6.80697 18 7.00588 18C7.20479 18 7.39556 17.921 7.53621 17.7803C7.67686 17.6397 7.75588 17.4489 7.75588 17.25V12.6562C8.40119 12.491 8.97316 12.1157 9.38161 11.5895C9.79006 11.0633 10.0118 10.4161 10.0118 9.75C10.0118 9.08387 9.79006 8.43669 9.38161 7.91048C8.97316 7.38428 8.40119 7.00898 7.75588 6.84375ZM7.00588 11.25C6.70921 11.25 6.4192 11.162 6.17253 10.9972C5.92585 10.8324 5.73359 10.5981 5.62006 10.324C5.50653 10.0499 5.47683 9.74834 5.5347 9.45737C5.59258 9.16639 5.73544 8.89912 5.94522 8.68934C6.155 8.47956 6.42228 8.3367 6.71325 8.27882C7.00422 8.22094 7.30582 8.25065 7.57991 8.36418C7.854 8.47771 8.08826 8.66997 8.25309 8.91665C8.41791 9.16332 8.50588 9.45333 8.50588 9.75C8.50588 10.1478 8.34785 10.5294 8.06654 10.8107C7.78524 11.092 7.40371 11.25 7.00588 11.25ZM14.5059 2.34375V0.75C14.5059 0.551088 14.4269 0.360322 14.2862 0.21967C14.1456 0.0790178 13.9548 0 13.7559 0C13.557 0 13.3662 0.0790178 13.2256 0.21967C13.0849 0.360322 13.0059 0.551088 13.0059 0.75V2.34375C12.3606 2.50898 11.7886 2.88428 11.3802 3.41048C10.9717 3.93669 10.75 4.58387 10.75 5.25C10.75 5.91613 10.9717 6.56331 11.3802 7.08952C11.7886 7.61572 12.3606 7.99102 13.0059 8.15625V17.25C13.0059 17.4489 13.0849 17.6397 13.2256 17.7803C13.3662 17.921 13.557 18 13.7559 18C13.9548 18 14.1456 17.921 14.2862 17.7803C14.4269 17.6397 14.5059 17.4489 14.5059 17.25V8.15625C15.1512 7.99102 15.7232 7.61572 16.1316 7.08952C16.5401 6.56331 16.7618 5.91613 16.7618 5.25C16.7618 4.58387 16.5401 3.93669 16.1316 3.41048C15.7232 2.88428 15.1512 2.50898 14.5059 2.34375ZM13.7559 6.75C13.4592 6.75 13.1692 6.66203 12.9225 6.4972C12.6759 6.33238 12.4836 6.09811 12.3701 5.82403C12.2565 5.54994 12.2268 5.24834 12.2847 4.95736C12.3426 4.66639 12.4854 4.39912 12.6952 4.18934C12.905 3.97956 13.1723 3.8367 13.4632 3.77882C13.7542 3.72094 14.0558 3.75065 14.3299 3.86418C14.604 3.97771 14.8383 4.16997 15.0031 4.41665C15.1679 4.66332 15.2559 4.95333 15.2559 5.25C15.2559 5.64782 15.0978 6.02936 14.8165 6.31066C14.5352 6.59196 14.1537 6.75 13.7559 6.75ZM23.5059 12.75C23.5053 12.0849 23.284 11.4388 22.8769 10.9129C22.4697 10.387 21.8996 10.011 21.2559 9.84375V0.75C21.2559 0.551088 21.1769 0.360322 21.0362 0.21967C20.8956 0.0790178 20.7048 0 20.5059 0C20.307 0 20.1162 0.0790178 19.9756 0.21967C19.8349 0.360322 19.7559 0.551088 19.7559 0.75V9.84375C19.1106 10.009 18.5386 10.3843 18.1302 10.9105C17.7217 11.4367 17.5 12.0839 17.5 12.75C17.5 13.4161 17.7217 14.0633 18.1302 14.5895C18.5386 15.1157 19.1106 15.491 19.7559 15.6562V17.25C19.7559 17.4489 19.8349 17.6397 19.9756 17.7803C20.1162 17.921 20.307 18 20.5059 18C20.7048 18 20.8956 17.921 21.0362 17.7803C21.1769 17.6397 21.2559 17.4489 21.2559 17.25V15.6562C21.8996 15.489 22.4697 15.113 22.8769 14.5871C23.284 14.0612 23.5053 13.4151 23.5059 12.75ZM20.5059 14.25C20.2092 14.25 19.9192 14.162 19.6725 13.9972C19.4259 13.8324 19.2336 13.5981 19.1201 13.324C19.0065 13.0499 18.9768 12.7483 19.0347 12.4574C19.0926 12.1664 19.2354 11.8991 19.4452 11.6893C19.655 11.4796 19.9223 11.3367 20.2132 11.2788C20.5042 11.2209 20.8058 11.2506 21.0799 11.3642C21.354 11.4777 21.5883 11.67 21.7531 11.9166C21.9179 12.1633 22.0059 12.4533 22.0059 12.75C22.0059 13.1478 21.8478 13.5294 21.5665 13.8107C21.2852 14.092 20.9037 14.25 20.5059 14.25Z" fill="black"/>
</g>
<defs>
<filter id="filter0_d_2_493" x="0" y="0" width="27.5059" height="26" filterUnits="userSpaceOnUse" color-interpolation-filters="sRGB">
<feFlood flood-opacity="0" result="BackgroundImageFix"/>
<feColorMatrix in="SourceAlpha" type="matrix" values="0 0 0 0 0 0 0 0 0 0 0 0 0 0 0 0 0 0 127 0" result="hardAlpha"/>
<feOffset dy="4"/>
<feGaussianBlur stdDeviation="2"/>
<feComposite in2="hardAlpha" operator="out"/>
<feColorMatrix type="matrix" values="0 0 0 0 0 0 0 0 0 0 0 0 0 0 0 0 0 0 0.25 0"/>
<feBlend mode="normal" in2="BackgroundImageFix" result="effect1_dropShadow_2_493"/>
<feBlend mode="normal" in="SourceGraphic" in2="effect1_dropShadow_2_493" result="shape"/>
</filter>
</defs>
</svg>
