<svg width="56" height="56" viewBox="0 0 56 56" fill="none" xmlns="http://www.w3.org/2000/svg">
<path fill-rule="evenodd" clip-rule="evenodd" d="M13.1249 27.9484C11.7767 29.9718 11.0573 32.3489 11.0574 34.7804V36.9599C11.0574 37.2569 10.9394 37.5418 10.7293 37.7519C10.5193 37.9619 10.2344 38.0799 9.93738 38.0799C9.64034 38.0799 9.35546 37.9619 9.14542 37.7519C8.93538 37.5418 8.81738 37.2569 8.81738 36.9599V34.7826C8.8174 31.9077 9.66852 29.0971 11.2635 26.7052L11.5054 26.3423C11.6702 26.0952 11.9265 25.9236 12.2179 25.8654C12.5092 25.8073 12.8117 25.8672 13.0588 26.0321C13.306 26.1969 13.4775 26.4532 13.5357 26.7445C13.5939 27.0358 13.5339 27.3384 13.3691 27.5855L13.1249 27.9484Z" fill="#F1F5FE"/>
<path fill-rule="evenodd" clip-rule="evenodd" d="M19.4432 24.3377C17.0016 24.3377 14.7235 25.5562 13.3705 27.5857L11.5068 26.3447C12.378 25.0388 13.5578 23.968 14.9418 23.2271C16.3258 22.4863 17.8711 22.0984 19.4409 22.0977H19.9337C20.2308 22.0977 20.5156 22.2157 20.7257 22.4257C20.9357 22.6357 21.0537 22.9206 21.0537 23.2177C21.0537 23.5147 20.9357 23.7996 20.7257 24.0096C20.5156 24.2197 20.2308 24.3377 19.9337 24.3377H19.4432ZM26.3379 27.9217C27.3907 29.5031 27.9529 31.3578 27.9529 33.2573H30.1929C30.1919 30.9168 29.4991 28.6287 28.2016 26.6807L27.9776 26.3447C27.8982 26.2176 27.7941 26.1077 27.6715 26.0215C27.549 25.9354 27.4103 25.8747 27.2638 25.8431C27.1174 25.8114 26.9661 25.8095 26.8188 25.8375C26.6716 25.8654 26.5315 25.9225 26.4068 26.0056C26.282 26.0886 26.1752 26.1959 26.0927 26.3209C26.0102 26.446 25.9536 26.5864 25.9263 26.7337C25.899 26.881 25.9015 27.0324 25.9337 27.1787C25.9659 27.325 26.0272 27.4634 26.1139 27.5857L26.3379 27.9217Z" fill="#F1F5FE"/>
<path fill-rule="evenodd" clip-rule="evenodd" d="M20.0425 24.3377C22.4818 24.3377 24.7599 25.5562 26.1129 27.5857L27.9766 26.3447C27.1054 25.0388 25.9256 23.968 24.5416 23.2271C23.1576 22.4863 21.6123 22.0984 20.0425 22.0977H19.5497C19.2526 22.0977 18.9678 22.2157 18.7577 22.4257C18.5477 22.6357 18.4297 22.9206 18.4297 23.2177C18.4297 23.5147 18.5477 23.7996 18.7577 24.0096C18.9678 24.2197 19.2526 24.3377 19.5497 24.3377H20.0425Z" fill="#F1F5FE"/>
<path fill-rule="evenodd" clip-rule="evenodd" d="M19.6003 21.8395C20.937 21.8395 22.2189 21.3085 23.1641 20.3633C24.1093 19.4182 24.6403 18.1362 24.6403 16.7995C24.6403 15.4628 24.1093 14.1809 23.1641 13.2357C22.2189 12.2905 20.937 11.7595 19.6003 11.7595C18.2636 11.7595 16.9817 12.2905 16.0365 13.2357C15.0913 14.1809 14.5603 15.4628 14.5603 16.7995C14.5603 18.1362 15.0913 19.4182 16.0365 20.3633C16.9817 21.3085 18.2636 21.8395 19.6003 21.8395ZM19.6003 24.0795C21.5311 24.0795 23.3828 23.3125 24.748 21.9473C26.1133 20.582 26.8803 18.7303 26.8803 16.7995C26.8803 14.8688 26.1133 13.0171 24.748 11.6518C23.3828 10.2865 21.5311 9.51953 19.6003 9.51953C17.6695 9.51953 15.8178 10.2865 14.4526 11.6518C13.0873 13.0171 12.3203 14.8688 12.3203 16.7995C12.3203 18.7303 13.0873 20.582 14.4526 21.9473C15.8178 23.3125 17.6695 24.0795 19.6003 24.0795ZM29.1405 35.1362C27.791 37.16 27.0708 39.538 27.0707 41.9704V44.2866C27.0707 44.5836 26.9527 44.8685 26.7427 45.0785C26.5326 45.2886 26.2478 45.4066 25.9507 45.4066C25.6537 45.4066 25.3688 45.2886 25.1588 45.0785C24.9487 44.8685 24.8307 44.5836 24.8307 44.2866V41.9704C24.8305 39.0965 25.6808 36.2868 27.2746 33.8952L27.5725 33.4472C27.6542 33.3248 27.7593 33.2198 27.8817 33.138C28.0041 33.0563 28.1414 32.9994 28.2857 32.9707C28.4301 32.942 28.5787 32.942 28.723 32.9707C28.8674 32.9994 29.0047 33.0563 29.127 33.1381C29.2494 33.2199 29.3545 33.3249 29.4362 33.4473C29.518 33.5697 29.5748 33.707 29.6036 33.8514C29.6323 33.9957 29.6322 34.1443 29.6035 34.2886C29.5748 34.433 29.5179 34.5703 29.4362 34.6927L29.1405 35.1362Z" fill="#F1F5FE"/>
<path fill-rule="evenodd" clip-rule="evenodd" d="M35.6599 31.3601C34.4277 31.3599 33.2146 31.6641 32.1282 32.2456C31.0419 32.827 30.116 33.6678 29.4327 34.6932L27.5713 33.45C28.4589 32.1182 29.6617 31.0262 31.0727 30.2709C32.4837 29.5155 34.0594 29.1203 35.6599 29.1201H36.1617C36.4587 29.1201 36.7436 29.2381 36.9536 29.4482C37.1637 29.6582 37.2817 29.9431 37.2817 30.2401C37.2817 30.5372 37.1637 30.822 36.9536 31.0321C36.7436 31.2421 36.4587 31.3601 36.1617 31.3601H35.6599ZM42.7988 35.1368C44.1483 37.1606 44.8684 39.5385 44.8686 41.971V44.2872C44.8686 44.5842 44.9866 44.8691 45.1966 45.0791C45.4066 45.2892 45.6915 45.4072 45.9886 45.4072C46.2856 45.4072 46.5705 45.2892 46.7805 45.0791C46.9906 44.8691 47.1086 44.5842 47.1086 44.2872V41.971C47.1081 39.0968 46.257 36.2871 44.6625 33.8958L44.3646 33.4478C44.2828 33.3254 44.1777 33.2204 44.0553 33.1386C43.9329 33.0568 43.7957 33 43.6513 32.9713C43.507 32.9426 43.3584 32.9426 43.214 32.9713C43.0697 33 42.9324 33.0569 42.81 33.1387C42.6876 33.2205 42.5826 33.3255 42.5008 33.4479C42.419 33.5703 42.3622 33.7076 42.3335 33.8519C42.3048 33.9963 42.3048 34.1449 42.3335 34.2892C42.3622 34.4336 42.4191 34.5709 42.5009 34.6932L42.7988 35.1368Z" fill="#F1F5FE"/>
<path fill-rule="evenodd" clip-rule="evenodd" d="M36.2763 31.3601C37.5085 31.3599 38.7217 31.6641 39.808 32.2456C40.8944 32.827 41.8203 33.6678 42.5035 34.6932L44.3672 33.45C43.4794 32.1179 42.2763 31.0257 40.8648 30.2703C39.4534 29.515 37.8772 29.1199 36.2763 29.1201H35.7723C35.4753 29.1201 35.1904 29.2381 34.9804 29.4482C34.7703 29.6582 34.6523 29.9431 34.6523 30.2401C34.6523 30.5372 34.7703 30.822 34.9804 31.0321C35.1904 31.2421 35.4753 31.3601 35.7723 31.3601H36.2763Z" fill="#F1F5FE"/>
<path fill-rule="evenodd" clip-rule="evenodd" d="M35.8396 29.1198C37.1763 29.1198 38.4582 28.5888 39.4034 27.6436C40.3486 26.6984 40.8796 25.4165 40.8796 24.0798C40.8796 22.7431 40.3486 21.4612 39.4034 20.516C38.4582 19.5708 37.1763 19.0398 35.8396 19.0398C34.5029 19.0398 33.2209 19.5708 32.2758 20.516C31.3306 21.4612 30.7996 22.7431 30.7996 24.0798C30.7996 25.4165 31.3306 26.6984 32.2758 27.6436C33.2209 28.5888 34.5029 29.1198 35.8396 29.1198ZM35.8396 31.3598C37.7703 31.3598 39.622 30.5928 40.9873 29.2275C42.3526 27.8623 43.1196 26.0106 43.1196 24.0798C43.1196 22.149 42.3526 20.2973 40.9873 18.9321C39.622 17.5668 37.7703 16.7998 35.8396 16.7998C33.9088 16.7998 32.0571 17.5668 30.6918 18.9321C29.3266 20.2973 28.5596 22.149 28.5596 24.0798C28.5596 26.0106 29.3266 27.8623 30.6918 29.2275C32.0571 30.5928 33.9088 31.3598 35.8396 31.3598Z" fill="#F1F5FE"/>
<path fill-rule="evenodd" clip-rule="evenodd" d="M28 53.76C42.2262 53.76 53.76 42.2262 53.76 28C53.76 13.7738 42.2262 2.24 28 2.24C13.7738 2.24 2.24 13.7738 2.24 28C2.24 42.2262 13.7738 53.76 28 53.76ZM28 56C43.465 56 56 43.465 56 28C56 12.535 43.465 0 28 0C12.535 0 0 12.535 0 28C0 43.465 12.535 56 28 56Z" fill="#F1F5FE"/>
</svg>
