<svg width="38" height="53" viewBox="0 0 38 53" fill="none" xmlns="http://www.w3.org/2000/svg">
<path d="M31.875 3.75H29.6812C29.2933 2.65283 28.5747 1.70298 27.6243 1.03136C26.674 0.359729 25.5387 -0.0006093 24.375 7.73388e-07H13.125C11.9613 -0.0006093 10.826 0.359729 9.87566 1.03136C8.92531 1.70298 8.20666 2.65283 7.81875 3.75H5.625C4.13316 3.75 2.70242 4.34263 1.64752 5.39753C0.592632 6.45242 0 7.88316 0 9.375V46.875C0 48.3668 0.592632 49.7976 1.64752 50.8525C2.70242 51.9074 4.13316 52.5 5.625 52.5H31.875C33.3668 52.5 34.7976 51.9074 35.8525 50.8525C36.9074 49.7976 37.5 48.3668 37.5 46.875V9.375C37.5 7.88316 36.9074 6.45242 35.8525 5.39753C34.7976 4.34263 33.3668 3.75 31.875 3.75ZM13.125 3.75H24.375C24.8723 3.75 25.3492 3.94755 25.7008 4.29918C26.0525 4.65081 26.25 5.12772 26.25 5.625C26.25 6.12228 26.0525 6.5992 25.7008 6.95083C25.3492 7.30246 24.8723 7.5 24.375 7.5H13.125C12.6277 7.5 12.1508 7.30246 11.7992 6.95083C11.4475 6.5992 11.25 6.12228 11.25 5.625C11.25 5.12772 11.4475 4.65081 11.7992 4.29918C12.1508 3.94755 12.6277 3.75 13.125 3.75ZM16.32 35.0775L10.695 40.7025C10.522 40.8778 10.3159 41.017 10.0886 41.112C9.86139 41.207 9.61755 41.2559 9.37125 41.2559C9.12495 41.2559 8.88111 41.207 8.65387 41.112C8.42663 41.017 8.22052 40.8778 8.0475 40.7025L6.1725 38.8275C5.83095 38.4739 5.64196 38.0002 5.64624 37.5086C5.65051 37.017 5.8477 36.5467 6.19534 36.1991C6.54298 35.8514 7.01325 35.6543 7.50487 35.65C7.99649 35.6457 8.47012 35.8347 8.82375 36.1763L9.37125 36.7238L13.6687 32.4263C14.0224 32.0847 14.496 31.8957 14.9876 31.9C15.4792 31.9043 15.9495 32.1014 16.2972 32.4491C16.6448 32.7967 16.842 33.267 16.8463 33.7586C16.8505 34.2502 16.6615 34.7239 16.32 35.0775ZM16.32 20.0775L10.695 25.7025C10.522 25.8778 10.3159 26.017 10.0886 26.112C9.86139 26.207 9.61755 26.2559 9.37125 26.2559C9.12495 26.2559 8.88111 26.207 8.65387 26.112C8.42663 26.017 8.22052 25.8778 8.0475 25.7025L6.1725 23.8275C5.83095 23.4739 5.64196 23.0002 5.64624 22.5086C5.65051 22.017 5.8477 21.5467 6.19534 21.1991C6.54298 20.8514 7.01325 20.6543 7.50487 20.65C7.99649 20.6457 8.47012 20.8347 8.82375 21.1762L9.37125 21.7238L13.6687 17.4262C14.0224 17.0847 14.496 16.8957 14.9876 16.9C15.4792 16.9043 15.9495 17.1014 16.2972 17.4491C16.6448 17.7967 16.842 18.267 16.8463 18.7586C16.8505 19.2502 16.6615 19.7239 16.32 20.0775ZM28.125 37.5H22.5C22.0027 37.5 21.5258 37.3025 21.1742 36.9508C20.8225 36.5992 20.625 36.1223 20.625 35.625C20.625 35.1277 20.8225 34.6508 21.1742 34.2992C21.5258 33.9475 22.0027 33.75 22.5 33.75H28.125C28.6223 33.75 29.0992 33.9475 29.4508 34.2992C29.8025 34.6508 30 35.1277 30 35.625C30 36.1223 29.8025 36.5992 29.4508 36.9508C29.0992 37.3025 28.6223 37.5 28.125 37.5ZM28.125 22.5H22.5C22.0027 22.5 21.5258 22.3025 21.1742 21.9508C20.8225 21.5992 20.625 21.1223 20.625 20.625C20.625 20.1277 20.8225 19.6508 21.1742 19.2992C21.5258 18.9475 22.0027 18.75 22.5 18.75H28.125C28.6223 18.75 29.0992 18.9475 29.4508 19.2992C29.8025 19.6508 30 20.1277 30 20.625C30 21.1223 29.8025 21.5992 29.4508 21.9508C29.0992 22.3025 28.6223 22.5 28.125 22.5Z" fill="white"/>
</svg>
