<svg width="41" height="57" viewBox="0 0 41 57" fill="none" xmlns="http://www.w3.org/2000/svg">
<path d="M22.55 22.3929C22.55 21.853 22.766 21.3352 23.1504 20.9534C23.5349 20.5716 24.0563 20.3571 24.6 20.3571H30.75C31.2937 20.3571 31.8151 20.5716 32.1996 20.9534C32.584 21.3352 32.8 21.853 32.8 22.3929C32.8 22.9328 32.584 23.4506 32.1996 23.8323C31.8151 24.2141 31.2937 24.4286 30.75 24.4286H24.6C24.0563 24.4286 23.5349 24.2141 23.1504 23.8323C22.766 23.4506 22.55 22.9328 22.55 22.3929ZM22.55 38.6786C22.55 38.1387 22.766 37.6209 23.1504 37.2391C23.5349 36.8573 24.0563 36.6429 24.6 36.6429H30.75C31.2937 36.6429 31.8151 36.8573 32.1996 37.2391C32.584 37.6209 32.8 38.1387 32.8 38.6786C32.8 39.2185 32.584 39.7363 32.1996 40.118C31.8151 40.4998 31.2937 40.7143 30.75 40.7143H24.6C24.0563 40.7143 23.5349 40.4998 23.1504 40.118C22.766 39.7363 22.55 39.2185 22.55 38.6786ZM10.2459 28.5C9.70325 28.4999 9.18279 28.2861 8.7986 27.9056L6.7486 25.8699C6.37518 25.4859 6.16855 24.9717 6.17322 24.4379C6.17789 23.9042 6.39348 23.3936 6.77357 23.0162C7.15366 22.6387 7.66782 22.4246 8.20533 22.42C8.74283 22.4153 9.26067 22.6205 9.6473 22.9914L10.2459 23.5858L14.9445 18.9199C15.3311 18.5491 15.849 18.3439 16.3865 18.3486C16.924 18.3532 17.4381 18.5673 17.8182 18.9447C18.1983 19.3222 18.4139 19.8327 18.4186 20.3665C18.4233 20.9003 18.2166 21.4145 17.8432 21.7984L11.6932 27.9056C11.309 28.2861 10.7885 28.4999 10.2459 28.5ZM8.7986 44.1913C9.18286 44.5717 9.70332 44.7853 10.2459 44.7853C10.7885 44.7853 11.3089 44.5717 11.6932 44.1913L17.8432 38.0841C18.2166 37.7002 18.4233 37.186 18.4186 36.6522C18.4139 36.1185 18.1983 35.6079 17.8182 35.2304C17.4381 34.853 16.924 34.6389 16.3865 34.6343C15.849 34.6296 15.3311 34.8348 14.9445 35.2056L10.2459 39.8715L9.6473 39.2771C9.26067 38.9063 8.74283 38.7011 8.20533 38.7057C7.66782 38.7103 7.15366 38.9244 6.77357 39.3019C6.39348 39.6793 6.17789 40.1899 6.17322 40.7236C6.16855 41.2574 6.37518 41.7716 6.7486 42.1556L8.7986 44.1913ZM8.5485 4.07143C8.97261 2.88022 9.75834 1.84895 10.7974 1.11976C11.8364 0.390563 13.0777 -0.000661526 14.35 8.39678e-07H26.65C27.9223 -0.000661526 29.1636 0.390563 30.2026 1.11976C31.2417 1.84895 32.0274 2.88022 32.4515 4.07143H34.85C36.4811 4.07143 38.0454 4.71486 39.1987 5.86017C40.3521 7.00548 41 8.55886 41 10.1786V50.8929C41 52.5126 40.3521 54.066 39.1987 55.2113C38.0454 56.3566 36.4811 57 34.85 57H6.15C4.51892 57 2.95464 56.3566 1.80129 55.2113C0.647945 54.066 0 52.5126 0 50.8929V10.1786C0 8.55886 0.647945 7.00548 1.80129 5.86017C2.95464 4.71486 4.51892 4.07143 6.15 4.07143H8.5485ZM14.35 4.07143C13.8063 4.07143 13.2849 4.28591 12.9004 4.66768C12.516 5.04945 12.3 5.56724 12.3 6.10714C12.3 6.64705 12.516 7.16484 12.9004 7.54661C13.2849 7.92838 13.8063 8.14286 14.35 8.14286H26.65C27.1937 8.14286 27.7151 7.92838 28.0996 7.54661C28.484 7.16484 28.7 6.64705 28.7 6.10714C28.7 5.56724 28.484 5.04945 28.0996 4.66768C27.7151 4.28591 27.1937 4.07143 26.65 4.07143H14.35ZM8.5485 8.14286H6.15C5.60631 8.14286 5.08488 8.35734 4.70043 8.73911C4.31598 9.12088 4.1 9.63867 4.1 10.1786V50.8929C4.1 51.4328 4.31598 51.9506 4.70043 52.3323C5.08488 52.7141 5.60631 52.9286 6.15 52.9286H34.85C35.3937 52.9286 35.9151 52.7141 36.2996 52.3323C36.684 51.9506 36.9 51.4328 36.9 50.8929V10.1786C36.9 9.63867 36.684 9.12088 36.2996 8.73911C35.9151 8.35734 35.3937 8.14286 34.85 8.14286H32.4515C32.0274 9.33407 31.2417 10.3653 30.2026 11.0945C29.1636 11.8237 27.9223 12.2149 26.65 12.2143H14.35C13.0777 12.2149 11.8364 11.8237 10.7974 11.0945C9.75834 10.3653 8.97261 9.33407 8.5485 8.14286Z" fill="black"/>
</svg>
